<?xml version="1.0" encoding="utf-8"?>
<!-- Generator: Adobe Illustrator 16.0.0, SVG Export Plug-In . SVG Version: 6.00 Build 0)  -->
<!DOCTYPE svg PUBLIC "-//W3C//DTD SVG 1.1//EN" "http://www.w3.org/Graphics/SVG/1.1/DTD/svg11.dtd">
<svg version="1.1" id="Capa_1" xmlns="http://www.w3.org/2000/svg" xmlns:xlink="http://www.w3.org/1999/xlink" x="0px" y="0px"
	 width="218.4px" height="63.791px" viewBox="0 0 218.4 63.791" enable-background="new 0 0 218.4 63.791" xml:space="preserve">
<g>
	<defs>
		<path id="SVGID_1_" d="M60.658,0C45.669,0,33.517,11.012,33.517,24.598c0,1.183,0.098,2.347,0.276,3.487
			c-1.971-0.333-4.059-0.514-6.222-0.514c-11.943,0-21.625,5.445-21.625,12.164c0,0.932,0.194,1.837,0.546,2.708
			C2.723,43.154,0,45.181,0,47.573c0,2.984,4.235,5.406,9.46,5.406c0.832,0,1.632-0.067,2.398-0.183
			c2.521,1.681,9.328,2.886,17.333,2.886c5.027,0,9.578-0.476,12.896-1.244c1.777,5.361,8.517,9.353,16.567,9.353
			c7.422,0,13.733-3.393,16.065-8.125c0.229,0.007,0.459,0.017,0.694,0.017c1.445,0,2.823-0.135,4.078-0.379
			c4.684,2.263,10.705,3.622,17.275,3.622c2.912,0,5.713-0.27,8.341-0.765c3.199,2.715,9.278,4.549,16.256,4.549
			c8.024,0,14.865-2.424,17.496-5.827c5.636,0.923,13.754,1.502,22.777,1.502c10.148,0,19.148-0.731,24.764-1.86
			c3.051,1.765,8.492,2.941,14.7,2.941c9.555,0,17.3-2.784,17.3-6.217s-7.745-6.217-17.3-6.217c-5.777,0-10.89,1.02-14.03,2.583
			c0.676-1.454,1.057-3.057,1.057-4.745c0-6.567-5.687-11.893-12.704-11.893c-5.271,0-9.79,3.006-11.714,7.283
			c-1.225-0.166-2.506-0.256-3.829-0.256c-1.991,0-3.893,0.204-5.642,0.572c-3.271-3.537-10.227-5.978-18.279-5.978
			c-3.286,0-6.387,0.409-9.132,1.132c1.175-2.077,1.834-4.38,1.834-6.809c0-9.107-9.197-16.489-20.542-16.489
			c-8.534,0-15.847,4.179-18.95,10.123c-0.479-0.3-0.995-0.538-1.541-0.702C86.122,9.561,74.625,0,60.658,0z"/>
	</defs>
	<clipPath id="SVGID_2_">
		<use xlink:href="#SVGID_1_"  overflow="visible"/>
	</clipPath>
	
		<linearGradient id="SVGID_3_" gradientUnits="userSpaceOnUse" x1="-4.882812e-04" y1="63.791" x2="0.9995" y2="63.791" gradientTransform="matrix(0 63.791 63.791 0 -3960.105 0.0098)">
		<stop  offset="0" style="stop-color:#FFFFFF"/>
		<stop  offset="0.2031" style="stop-color:#FDFEFE"/>
		<stop  offset="0.4196" style="stop-color:#F3F5F9"/>
		<stop  offset="0.6424" style="stop-color:#E1E6F0"/>
		<stop  offset="0.868" style="stop-color:#C5CFE2"/>
		<stop  offset="1" style="stop-color:#B2BFD8"/>
	</linearGradient>
	<rect clip-path="url(#SVGID_2_)" fill="url(#SVGID_3_)" width="218.4" height="63.791"/>
</g>
<g>
	<defs>
		<path id="SVGID_4_" d="M89.169,22.557c-0.051-0.031-0.104-0.054-0.155-0.083c-0.255,1.456-0.503,3.56-0.39,5.911
			c0.209,4.396,4.815,2.512,6.07-1.885c1.257-4.395,7.956-3.978,7.956-3.978s-5.653,3.559-3.56,6.91
			c2.093,3.349,2.931,6.908,1.885,7.955s-5.862-0.21-5.862-0.21s-0.628,3.561,7.328,3.561c7.956,0,11.305,5.441,11.305,5.441
			s3.558-3.559,7.327-6.488c1.712-1.333,3.897-2.624,5.894-4.225c1.084-2.007,1.694-4.217,1.694-6.543
			c0-9.107-9.197-16.489-20.542-16.489C99.585,12.434,92.272,16.613,89.169,22.557"/>
	</defs>
	<clipPath id="SVGID_5_">
		<use xlink:href="#SVGID_4_"  overflow="visible"/>
	</clipPath>
	
		<linearGradient id="SVGID_6_" gradientUnits="userSpaceOnUse" x1="4.882812e-04" y1="63.79" x2="1.0005" y2="63.79" gradientTransform="matrix(0 33.7441 33.7441 0 -2043.9456 12.4473)">
		<stop  offset="0" style="stop-color:#F6F9FC"/>
		<stop  offset="0.2046" style="stop-color:#EFF2F9"/>
		<stop  offset="0.5317" style="stop-color:#DBE1EE"/>
		<stop  offset="0.9386" style="stop-color:#B8C4DB"/>
		<stop  offset="1" style="stop-color:#B2BFD8"/>
	</linearGradient>
	<rect x="88.511" y="12.434" clip-path="url(#SVGID_5_)" fill="url(#SVGID_6_)" width="40.15" height="33.745"/>
</g>
<g>
	<defs>
		<rect id="SVGID_7_" width="218.4" height="63.791"/>
	</defs>
	<clipPath id="SVGID_8_">
		<use xlink:href="#SVGID_7_"  overflow="visible"/>
	</clipPath>
	<path clip-path="url(#SVGID_8_)" fill="#FFFEF6" d="M109.978,15.405c-1.32,1.584-0.838,5.443,4.605,6.699
		c5.442,1.256,7.118,5.234,7.118,5.234s2.302-4.607-0.211-8.793C118.979,14.358,112.07,12.894,109.978,15.405"/>
	<path clip-path="url(#SVGID_8_)" fill="#F1F5F9" d="M169.432,36.13c-1.91,1.433-0.629,2.932,3.139,2.932
		c3.769,0,6.49,1.466,6.49,1.466s3.77-2.723-0.837-5.234C173.618,32.781,170.27,35.502,169.432,36.13"/>
	<path clip-path="url(#SVGID_8_)" fill="#FFFEF6" d="M51.778,5.565c0,0,4.605-3.768,13.397-1.884
		c8.793,1.884,12.143,7.536,12.143,7.536s-2.931,1.466-7.327,1.047c-4.397-0.419-3.14-4.397-8.583-6.49
		C55.965,3.682,51.778,5.565,51.778,5.565"/>
	<path clip-path="url(#SVGID_8_)" fill="#FFFEF6" d="M22.679,29.64c0,0-4.605,0-7.955,2.513c-3.35,2.511,0.628,4.186,4.815,2.93
		S22.679,29.64,22.679,29.64"/>
	<path clip-path="url(#SVGID_8_)" fill="#F1F5F9" d="M116.885,46.807c0,0,5.861-2.931,11.096-2.721
		c5.233,0.209,10.05,1.256,10.05,1.256s-8.794-5.234-14.028-4.606C118.769,41.364,116.885,46.807,116.885,46.807"/>
	<path clip-path="url(#SVGID_8_)" fill="#F1F5F9" d="M161.685,42.411c0,0-7.745-0.419-11.305,0.418
		c-3.56,0.838-8.792,3.977-8.792,3.977s3.559-0.836,7.955-0.836S161.685,42.411,161.685,42.411"/>
</g>
<g>
	<defs>
		<path id="SVGID_9_" d="M33.517,24.598c0,1.183,0.098,2.347,0.276,3.487c-1.91-0.322-3.93-0.498-6.021-0.51
			c-0.151,1.76-0.222,3.942-0.069,6.462c0.419,6.908-8.583,12.56-16.748,10.886c-2.183-0.448-3.627-1.359-4.579-2.457
			C2.668,43.198,0,45.206,0,47.573c0,2.984,4.235,5.406,9.46,5.406c0.832,0,1.632-0.067,2.398-0.183
			c2.521,1.681,9.328,2.886,17.333,2.886c5.027,0,9.578-0.476,12.896-1.244c1.777,5.361,8.517,9.353,16.567,9.353
			c7.422,0,13.733-3.393,16.065-8.125c0.229,0.007,0.459,0.017,0.694,0.017c1.445,0,2.823-0.135,4.078-0.379
			c4.684,2.263,10.705,3.622,17.275,3.622c2.912,0,5.713-0.27,8.341-0.765c3.199,2.715,9.278,4.549,16.256,4.549
			c8.024,0,14.865-2.424,17.496-5.827c5.636,0.923,13.754,1.502,22.777,1.502c10.148,0,19.148-0.731,24.764-1.86
			c3.051,1.765,8.492,2.941,14.7,2.941c9.555,0,17.3-2.784,17.3-6.217s-7.745-6.217-17.3-6.217c-5.777,0-10.89,1.02-14.03,2.583
			c0.676-1.454,1.057-3.057,1.057-4.745c0-0.823-0.09-1.626-0.26-2.401c-0.935-0.102-2.218,0.003-3.991,0.57
			c-5.233,1.675-7.536,5.445-12.771,5.445c-5.233,0-6.489-3.77-6.489-3.77s-6.699,7.536-14.444,8.793
			c-7.747,1.256-12.98-1.676-12.98-1.676s-5.861,7.746-16.955,6.699c-11.098-1.046-14.237-6.281-14.237-6.281
			s-0.837,1.256-3.559,2.094s-7.537,0.209-7.537-4.605c0-4.815,7.327-6.28,7.327-6.28s-5.024-0.629-10.048,3.348
			c-5.025,3.979-7.536,0.838-7.536,0.838s1.255,4.188-4.188,4.606c-1.965,0.152-3.167-0.052-4.037-0.255
			c-1.54-0.36-2.046-0.721-3.918,0.883c-2.93,2.511-9.42-0.419-9.42-0.419s3.767-0.628,3.978-4.395
			c0.209-3.77-2.931-2.723-2.931-2.723s-0.21-3.141,3.768-2.722c3.977,0.419,6.49,2.513,11.723,3.35
			c5.234,0.836,10.467-5.861,5.443-7.536c-5.025-1.675-2.302-7.536-2.302-7.536s-1.676-8.166-3.141-11.096
			c-1.465-2.932-10.259-4.606-12.351,1.883c-2.094,6.489-9.839,6.489-9.839,6.489s1.675-6.07-3.56-8.582
			c-2.966-1.423-5.125-0.561-7.354,0.301c-1.703,0.659-3.448,1.318-5.626,0.955c-3.326-0.554-4.356-4.41-4.675-6.954
			C34.487,17.13,33.517,20.761,33.517,24.598"/>
	</defs>
	<clipPath id="SVGID_10_">
		<use xlink:href="#SVGID_9_"  overflow="visible"/>
	</clipPath>
	
		<linearGradient id="SVGID_11_" gradientUnits="userSpaceOnUse" x1="0" y1="63.79" x2="1" y2="63.79" gradientTransform="matrix(0 49.8965 49.8965 0 -3073.7607 13.8848)">
		<stop  offset="0" style="stop-color:#F1F5F9"/>
		<stop  offset="0.2167" style="stop-color:#E3E9F2"/>
		<stop  offset="1" style="stop-color:#B2BFD8"/>
	</linearGradient>
	<rect y="13.894" clip-path="url(#SVGID_10_)" fill="url(#SVGID_11_)" width="218.4" height="49.897"/>
</g>
<g>
	<defs>
		<path id="SVGID_12_" d="M33.517,24.598c0,1.126,0.094,2.231,0.256,3.317c0.256,0.436,0.535,0.75,0.836,0.888
			c0,0,2.721,8.166,7.537,9.002c2.157,0.376,4.021,0.204,5.76,0.033c2.141-0.211,4.093-0.422,6.172,0.387
			c3.769,1.466,6.49,4.396,9.422,3.768c2.931-0.628,5.023-0.209,8.583,0.628c3.559,0.838,6.908,1.884,6.908,1.884
			s-6.28-3.767-6.908-8.373c-0.627-4.607-0.419-7.746-0.419-7.746s-1.675,3.559-6.909,3.559s-9.211,0.208-13.817-5.234
			c-4.605-5.443-7.327-0.838-10.048-0.838c-2.721,0-3.559-0.209-5.652-3.349c-0.433-0.65-0.866-1.456-1.281-2.32
			C33.673,21.63,33.517,23.097,33.517,24.598"/>
	</defs>
	<clipPath id="SVGID_13_">
		<use xlink:href="#SVGID_12_"  overflow="visible"/>
	</clipPath>
	
		<linearGradient id="SVGID_14_" gradientUnits="userSpaceOnUse" x1="9.765625e-04" y1="63.792" x2="1.001" y2="63.792" gradientTransform="matrix(0 24.3008 24.3008 0 -1493.9227 20.1973)">
		<stop  offset="0" style="stop-color:#F1F5F9"/>
		<stop  offset="0.1949" style="stop-color:#E3E9F2"/>
		<stop  offset="0.7231" style="stop-color:#C0CBDF"/>
		<stop  offset="1" style="stop-color:#B2BFD8"/>
	</linearGradient>
	<rect x="33.517" y="20.204" clip-path="url(#SVGID_13_)" fill="url(#SVGID_14_)" width="45.474" height="24.301"/>
</g>
<g>
	<defs>
		<path id="SVGID_15_" d="M155.823,56.229c-2.051,0.819-4.649,1.388-6.772,1.755c3.844,0.258,8.104,0.4,12.586,0.4
			c10.148,0,19.148-0.731,24.764-1.86c3.051,1.765,8.492,2.941,14.7,2.941c3.476,0,6.705-0.369,9.416-1.003
			c-0.517-1.721-4.185-2.022-9.266-2.022c-7.327,0-10.467-2.933-12.352-3.352c-1.884-0.419-5.861-1.255-5.861-1.255
			s-8.165,3.979-12.979,2.72c-4.814-1.255-5.024-3.349-5.024-3.349S160.01,54.554,155.823,56.229"/>
	</defs>
	<clipPath id="SVGID_16_">
		<use xlink:href="#SVGID_15_"  overflow="visible"/>
	</clipPath>
	
		<linearGradient id="SVGID_17_" gradientUnits="userSpaceOnUse" x1="4.882812e-04" y1="63.791" x2="1.0005" y2="63.791" gradientTransform="matrix(0 8.2607 8.2607 0 -347.1692 51.2051)">
		<stop  offset="0" style="stop-color:#CDD8E7"/>
		<stop  offset="0.203" style="stop-color:#C7D2E3"/>
		<stop  offset="0.484" style="stop-color:#B6C2D7"/>
		<stop  offset="0.8091" style="stop-color:#9DA9C4"/>
		<stop  offset="1" style="stop-color:#8B98B6"/>
	</linearGradient>
	<rect x="149.051" y="51.205" clip-path="url(#SVGID_16_)" fill="url(#SVGID_17_)" width="61.466" height="8.261"/>
</g>
<g>
	<defs>
		<path id="SVGID_18_" d="M30.005,38.434c0.838,2.094,0.419,3.56,1.256,6.699c0.837,3.141,5.234,3.978,5.234,3.978
			s-2.513,1.466-10.469,1.466c-7.955,0-11.722-2.721-11.722-2.721s-1.256,1.255-4.815,1.046c-3.558-0.209-6.909-1.884-6.909-1.884
			c-0.744-0.705-1.23-1.344-1.532-1.917C0.378,45.841,0,46.682,0,47.573c0,2.984,4.235,5.406,9.46,5.406
			c0.832,0,1.632-0.067,2.398-0.183c2.521,1.681,9.328,2.886,17.333,2.886c5.027,0,9.578-0.476,12.896-1.244
			c1.777,5.361,8.517,9.353,16.567,9.353c7.422,0,13.733-3.393,16.065-8.125c0.229,0.007,0.459,0.017,0.694,0.017
			c1.445,0,2.823-0.135,4.078-0.379c4.322,2.085,9.787,3.392,15.767,3.583c-1.013-0.592-2.233-1.213-3.705-1.821
			c-6.07-2.513-3.141-6.28-3.141-6.28s-2.72,0.419-4.815,1.884c-2.093,1.466-3.558,2.094-6.49,2.094
			c-2.93,0-3.767-0.628-3.767-0.628s-9.63,10.257-20.307,5.233c-10.676-5.024-6.908-14.445-3.559-15.701
			c3.35-1.256,7.747,1.675,7.747,1.675s-1.676-3.559-5.234-4.396c-3.559-0.838-5.654-1.466-9.841,1.465
			c-4.185,2.931-7.954,0.628-9.002-1.884c-1.046-2.513-3.977-5.652-3.977-5.652S29.167,36.341,30.005,38.434"/>
	</defs>
	<clipPath id="SVGID_19_">
		<use xlink:href="#SVGID_18_"  overflow="visible"/>
	</clipPath>
	
		<linearGradient id="SVGID_20_" gradientUnits="userSpaceOnUse" x1="4.882812e-04" y1="63.791" x2="1.0005" y2="63.791" gradientTransform="matrix(0 28.916 28.916 0 -1796.9558 34.8691)">
		<stop  offset="0" style="stop-color:#CDD8E7"/>
		<stop  offset="0.203" style="stop-color:#C7D2E3"/>
		<stop  offset="0.484" style="stop-color:#B6C2D7"/>
		<stop  offset="0.8091" style="stop-color:#9DA9C4"/>
		<stop  offset="1" style="stop-color:#8B98B6"/>
	</linearGradient>
	<rect y="34.875" clip-path="url(#SVGID_19_)" fill="url(#SVGID_20_)" width="95.258" height="29.517"/>
</g>
<g>
	<defs>
		<rect id="SVGID_21_" width="218.4" height="63.791"/>
	</defs>
	<clipPath id="SVGID_22_">
		<use xlink:href="#SVGID_21_"  overflow="visible"/>
	</clipPath>
	<path clip-path="url(#SVGID_22_)" fill="#DEE5ED" d="M194.134,50.157c-0.906,1.208,2.93,2.932,7.117,1.256
		c4.188-1.675,9.421-0.629,10.468-0.419s3.35,1.466,3.35,1.466s-1.257-3.978-8.793-3.978S195.39,48.482,194.134,50.157"/>
</g>
</svg>
